<?xml version="1.0" encoding="UTF-8"?><svg xmlns="http://www.w3.org/2000/svg" viewBox="0 0 2048 2048"><circle cx="1024" cy="1024" r="1024" fill="#111"/><path d="M1024.01 396c-277.08 0-475 237.36-475 474.71 0 316.47 158.33 593.38 395.83 751.62q79.16 39.56 158.33 0C1340.67 1464.1 1499 1187.18 1499 870.71 1499 633.35 1301.08 396 1024 396ZM707.33 1286.08c-39.58-39.56-59.37-98.9-39.58-118.68s197.91 79.12 178.12 118.68-79.17 39.56-138.54 0Zm534.38-59.34c-98.96 79.12-237.5 79.12-257.29 39.56-19.79-59.34 296.88-316.47 336.46-276.91 39.58 39.55 19.79 158.23-79.17 237.35Z" fill="#fff"/></svg>