<?xml version="1.0" encoding="UTF-8"?><svg xmlns="http://www.w3.org/2000/svg" viewBox="0 0 256 256"><path d="M172 168c20-16 24-40 16-48s-72 44-68 56c4 8 32 8 52-8ZM56.584 169.264c3.864 8.608 11.968 15.104 21.304 16.496C84.32 186.72 89.6 184.8 92 180c4-8-32-28-36-24-2.4 2.4-1.92 7.688.584 13.264ZM128 0c56 0 96 48 96 96 0 61.36-29.408 115.36-74.136 147.912-4.432 3.224-9.224 5.96-14.264 8.128-6.064 2.616-9.144 2.616-15.208 0-5.032-2.168-9.832-4.904-14.264-8.128C61.408 211.36 32 157.36 32 96 32 48 72 0 128 0Z" fill="#000"/></svg>