<?xml version="1.0" encoding="UTF-8"?><svg xmlns="http://www.w3.org/2000/svg" width="79" height="28" role="img" aria-label="Lucide" viewBox="0 0 79 28"><rect width="79" height="28" rx="4" ry="4" fill="#40131f"/><path d="M18.322 6.748c-.193.011-.373.098-.501.241-.267.299-.241.759.058 1.026 0 0 0 0 0 0 1.7 1.516 2.671 3.686 2.667 5.964.006 2.806-2.264 5.085-5.069 5.091-.007 0-.015 0-.022 0-2.806.006-5.085-2.263-5.091-5.069 0-.007 0-.015 0-.022-.007-1.198.959-2.175 2.158-2.182.008 0 .016 0 .024 0 1.213 0 2.182.967 2.182 2.182 0 .401.325.727.727.727.401 0 .727-.324.728-.725 0 0 0 0 0-.001 0-2-1.637-3.637-3.637-3.637S8.91 11.98 8.91 13.98c0 3.605 2.939 6.545 6.545 6.545S22 17.585 22 13.98c.002-2.691-1.145-5.255-3.152-7.047-.144-.129-.333-.195-.526-.185Zm-5.777.685C8.938 7.433 6 10.374 6 13.98c-.002 2.714 1.164 5.297 3.2 7.091.301.266.76.238 1.026-.063 0 0 0 0 0-.001.266-.3.238-.76-.062-1.026 0 0 0 0-.001 0-1.725-1.516-2.712-3.703-2.709-6-.006-2.806 2.263-5.085 5.069-5.091.007 0 .015 0 .022 0 2.806-.006 5.085 2.263 5.091 5.069 0 .007 0 .015 0 .022.006 1.199-.96 2.176-2.159 2.182-.008 0-.015 0-.023 0-1.199.006-2.176-.96-2.182-2.159 0-.008 0-.015 0-.023 0-.401-.325-.727-.727-.727-.401 0-.727.324-.728.725 0 0 0 0 0 .001 0 2 1.637 3.637 3.637 3.637s3.636-1.637 3.636-3.637c0-3.605-2.939-6.545-6.545-6.545Z" fill="#ffa1ad"/><path d="M69.603 10.126H65.314V12.61h3.234v1.113H65.314v2.496h4.289v1.113H64.095V9.012h5.508v1.113ZM61.54 13.29c0 .976-.215 1.709-.647 2.197s-1.076.732-1.931.732h-.797V10.125h.797c.856 0 1.5.263 1.931.788s.647 1.317.647 2.376Zm1.231-.001c0-2.851-1.27-4.277-3.809-4.277H56.946v8.32h2.016c2.539 0 3.809-1.348 3.809-4.043ZM51.995 9.012h3.146v1.113H53.213v6.094h1.928v1.113H50.078V16.219h1.917V10.125H50.078V9.012h1.917Zm-5.679.963c-.753 0-1.358.271-1.813.814s-.683 1.314-.683 2.314c0 2.18.941 3.27 2.824 3.27.567 0 1.125-.118 1.676-.352l.27 1.031c-.68.265-1.395.398-2.145.398-2.586 0-3.879-1.43-3.879-4.289 0-1.355.326-2.405.979-3.149s1.572-1.116 2.76-1.116c.574 0 1.074.091 1.5.272s.737.44.932.776l-.867.861c-.176-.265-.399-.47-.671-.615s-.566-.217-.882-.217ZM40.023 14.66V9.012h1.219V14.66c0 .93-.23 1.627-.691 2.092-.462.465-1.137.697-2.028.697-1.781 0-2.672-.93-2.672-2.789V9.012H37.07V14.66c0 .555.119.973.357 1.254s.611.422 1.119.422c.985 0 1.477-.559 1.477-1.676Zm-9.867 1.559V9.012H28.937v8.32h5.508V16.219H30.156Z" fill="#fff"/></svg>