<?xml version="1.0" encoding="UTF-8"?><svg xmlns="http://www.w3.org/2000/svg" width="79" height="28" role="img" aria-label="Motion" viewBox="0 0 79 28"><rect width="79" height="28" rx="4" ry="4" fill="#3d300e"/><path d="M15.994 10.999 12.83 17h1.441c.796 0 1.752-.588 2.135-1.315L18.876 11H15.993ZM12.588 11 9.424 17.001h2.883L15.471 11H12.588Zm6.529 1.5c0 .829.645 1.5 1.441 1.5s1.441-.671 1.441-1.5-.645-1.5-1.441-1.5-1.441.671-1.441 1.5Zm-7.07-1.499H10.606c-.796 0-1.752.588-2.135 1.315L6 17.001H8.883L12.047 11Z" fill="#ffdf20"/><path d="M33.297 9.012h.984v8.32h-1.172v-6.844h-.152l-.902 3.445h-1.078l-.902-3.445h-.152v6.844h-1.172v-8.32h1.816l.902 3.574h.094l.902-3.574h.832Zm8.321 4.218c0 2.812-1.023 4.219-3.071 4.219s-3.07-1.406-3.07-4.219c0-2.891 1.023-4.336 3.07-4.336s3.071 1.445 3.071 4.336Zm-1.254 0c0-2.172-.606-3.258-1.817-3.258s-1.816 1.086-1.816 3.258c0 2.094.605 3.141 1.816 3.141s1.817-1.047 1.817-3.141Zm4.605-4.218h-2.438v1.113h2.438v7.207h1.219v-7.207h2.438V9.012H44.97Zm7.025 0h-1.916v1.113h1.916v6.094h-1.916v1.113h5.062v-1.113h-1.928v-6.094h1.928V9.012h-3.146ZM62.711 13.23c0 2.812-1.023 4.219-3.07 4.219s-3.07-1.406-3.07-4.219c0-2.891 1.023-4.336 3.07-4.336s3.07 1.445 3.07 4.336Zm-1.254 0c0-2.172-.605-3.258-1.816-3.258s-1.816 1.086-1.816 3.258c0 2.094.605 3.141 1.816 3.141s1.816-1.047 1.816-3.141Zm6.645-4.218v6.328h-.117l-2.391-6.328h-1.57v8.32h1.219v-6.328h.117l2.391 6.328h1.57v-8.32h-1.219Z" fill="#fff"/></svg>