<?xml version="1.0" encoding="UTF-8"?><svg xmlns="http://www.w3.org/2000/svg" width="86" height="28" role="img" aria-label="Next.js" viewBox="0 0 86 28"><rect width="86" height="28" rx="4" ry="4"/><path d="M16.222 14.963V10.8h1.067v5.537l-1.067-1.374Zm2.222 5.689-6.567-8.485v5.03H10.8V10.8h1.346l7.143 9.201C20.951 18.534 22 16.389 22 14c0-4.415-3.585-8-8-8S6 9.585 6 14s3.585 8 8 8c1.643 0 3.172-.497 4.443-1.348Z" fill="#fff"/><path d="M32.945 9.012h1.219v8.32h-1.57l-2.391-6.328h-.117v6.328h-1.219v-8.32h1.57l2.391 6.328h.117V9.012Zm3.024 0v8.32h5.508v-1.113h-4.29v-2.496h3.235V12.61h-3.235v-2.484h4.29V9.013h-5.508Zm11.397 0-1.787 3.187-1.787-3.187h-1.348l2.551 4.201-2.551 4.119h1.348l1.787-3.123 1.787 3.123h1.348l-2.551-4.119 2.551-4.201h-1.348Zm4.635 0h-2.438v1.113h2.438v7.207h1.219v-7.207h2.438V9.012h-3.656Zm7.641 6.703c-.238 0-.442.084-.612.252s-.255.373-.255.615c0 .238.085.442.255.612s.374.255.612.255c.242 0 .447-.085.615-.255s.252-.374.252-.612c0-.242-.084-.447-.252-.615s-.373-.252-.615-.252Zm8.519-6.703h-2.133v1.113h2.133v4.418c0 .59-.14 1.046-.419 1.368s-.677.483-1.192.483c-.531 0-.942-.162-1.233-.486s-.437-.779-.437-1.365h-1.219c0 .918.248 1.632.744 2.142s1.201.765 2.115.765c.898 0 1.6-.254 2.104-.762s.756-1.223.756-2.145V9.012h-1.219Zm6.334 3.797-1.219-.574c-.281-.133-.494-.284-.639-.454s-.217-.39-.217-.659c0-.379.11-.665.331-.858s.532-.29.935-.29c.324 0 .636.063.935.19s.62.331.964.612l.82-.832c-.398-.371-.812-.639-1.242-.803s-.924-.246-1.482-.246c-.801 0-1.42.199-1.857.598s-.656.961-.656 1.688c0 .539.151.99.454 1.354s.737.674 1.304.932l1.441.656c.508.23.762.594.762 1.09 0 .391-.133.682-.398.873s-.672.287-1.219.287c-.379 0-.769-.048-1.169-.144s-.815-.235-1.245-.419l-.152 1.184c.352.152.733.267 1.146.343s.854.114 1.327.114c.996 0 1.739-.188 2.229-.565s.735-.942.735-1.696c0-.57-.16-1.037-.48-1.4s-.789-.689-1.406-.979Z" fill="#fff"/></svg>