<?xml version="1.0" encoding="UTF-8"?><svg xmlns="http://www.w3.org/2000/svg" width="93" height="28" role="img" aria-label="Radix UI" viewBox="0 0 93 28"><rect width="93" height="28" rx="4" ry="4" fill="#111"/><path d="M13.68 22c-2.828 0-5.12-2.292-5.12-5.12s2.292-5.12 5.12-5.12V22Zm0-16v5.12H8.56V6h5.12Zm3.2 5.12c-1.414 0-2.56-1.146-2.56-2.56 0-1.414 1.146-2.56 2.56-2.56 0 0 0 0 0 0 1.414 0 2.56 1.147 2.56 2.56 0 1.414-1.146 2.559-2.56 2.56Z" fill="#fff"/><path d="M33.681 13.477c.471-.461.706-1.109.706-1.945 0-.805-.235-1.426-.706-1.863s-1.138-.656-2.001-.656h-2.859v8.32h1.219v-3.164h1.641c.034 0 .063-.006.096-.007l1.509 3.171h1.406L32.97 13.93c.27-.113.512-.257.711-.452Zm-3.642-3.352h1.641c.465 0 .827.132 1.087.396s.39.64.39 1.128c0 .445-.13.791-.39 1.037s-.622.369-1.087.369h-1.641v-2.93Zm7.658-1.113-2.402 8.32h1.23l.546-2.027h2.952l.546 2.027h1.23l-2.403-8.32h-1.699Zm-.326 5.179 1.123-4.172h.105l1.123 4.172H37.37Zm7.528-5.179h-2.016v8.32h2.016c2.539 0 3.809-1.348 3.809-4.043 0-2.852-1.27-4.277-3.809-4.277Zm1.931 6.474c-.432.488-1.075.732-1.931.732h-.797v-6.094h.797c.855 0 1.499.263 1.931.788s.647 1.317.647 2.376c0 .977-.216 1.709-.647 2.197Zm6.384-6.474h1.928v1.113h-1.928v6.094h1.928v1.113h-5.063v-1.113h1.917v-6.094h-1.917V9.012h3.135Zm9.562 0-2.551 4.201 2.551 4.119h-1.348l-1.787-3.123-1.787 3.123h-1.348l2.551-4.119-2.551-4.201h1.348l1.787 3.187 1.787-3.187h1.348Zm12.405 0H76.4v5.648c0 .93-.23 1.627-.691 2.092s-1.137.697-2.027.697c-1.781 0-2.672-.93-2.672-2.789V9.012h1.219v5.648c0 .555.119.973.357 1.254s.611.422 1.119.422c.984 0 1.477-.559 1.477-1.676V9.012Zm6.158 1.113v6.094h1.928v1.113h-5.062v-1.113h1.916v-6.094h-1.916V9.012h5.062v1.113h-1.928Z" fill="#fff"/></svg>