<?xml version="1.0" encoding="UTF-8"?><svg xmlns="http://www.w3.org/2000/svg" width="72" height="28" role="img" aria-label="React" viewBox="0 0 72 28"><rect width="72" height="28" rx="4" ry="4" fill="#0d3230"/><path d="M14 12.574c.788 0 1.426.638 1.426 1.426s-.638 1.426-1.426 1.426-1.426-.638-1.426-1.426.638-1.426 1.426-1.426ZM22 14c0-1.121-1.317-2.091-3.362-2.678.515-2.065.333-3.69-.638-4.251-.81-.467-1.982-.133-3.303.94-.233.19-.467.404-.7.631-1.529-1.475-3.026-2.129-3.997-1.571-.97.561-1.152 2.186-.637 4.251C7.317 11.909 6 12.879 6 14s1.315 2.089 3.359 2.676c-.08.315-.149.625-.197.922-.269 1.68.028 2.863.838 3.329.239.139.51.207.806.207.709 0 1.566-.389 2.497-1.145.232-.189.465-.403.697-.628.232.226.465.439.697.628.931.756 1.788 1.145 2.497 1.145.297 0 .567-.068.806-.207.81-.467 1.107-1.649.838-3.329-.048-.297-.117-.607-.197-.922 2.043-.587 3.358-1.556 3.358-2.676ZM15.136 8.551c.799-.649 1.515-.992 2.048-.992.177 0 .335.038.468.115.63.363.762 1.682.313 3.475-.655-.15-1.369-.262-2.128-.333-.441-.623-.896-1.186-1.354-1.678.217-.211.435-.411.652-.588Zm1.094 6.736c-.247.428-.506.839-.773 1.232-.466.035-.951.055-1.456.055s-.99-.02-1.456-.055c-.267-.392-.526-.804-.773-1.232-.252-.437-.477-.867-.68-1.289.206-.428.433-.858.68-1.285s.506-.84.773-1.232c.466-.035.951-.055 1.456-.055s.989.02 1.455.055c.263.386.523.795.775 1.232.247.428.474.858.68 1.286-.203.421-.428.851-.68 1.288Zm1.047-.47c.196.464.363.919.502 1.363-.445.1-.923.186-1.434.25.166-.259.329-.523.486-.795.158-.274.305-.546.446-.818ZM14 18.364c-.315-.343-.627-.716-.931-1.117.305.014.615.023.931.023s.626-.009.931-.023c-.304.402-.616.775-.931 1.117ZM11.655 16.43c-.511-.064-.989-.15-1.434-.25.139-.444.306-.9.502-1.364.141.272.288.544.446.818.157.272.32.536.486.795Zm-.932-3.245c-.2-.474-.364-.93-.5-1.365.445-.1.922-.185 1.432-.25-.166.259-.329.523-.486.796-.157.272-.304.546-.446.82Zm3.278-3.55c.308.334.62.71.929 1.118-.305-.014-.614-.023-.93-.023s-.625.009-.931.023c.304-.402.616-.775.931-1.118Zm2.831 2.73c-.158-.274-.321-.538-.486-.795.51.064.987.149 1.431.25-.136.435-.3.891-.5 1.365-.142-.273-.289-.547-.446-.819ZM10.348 7.674c.129-.075.283-.111.457-.111.673 0 1.653.554 2.709 1.575-.462.5-.916 1.064-1.351 1.678-.759.07-1.473.183-2.128.333-.449-1.794-.316-3.112.313-3.475ZM6.696 14c0-.727 1.075-1.501 2.853-2.009.198.642.457 1.317.776 2.009-.315.683-.576 1.358-.778 2.008C7.77 15.5 6.696 14.727 6.696 14Zm6.168 5.449c-1.065.865-1.982 1.185-2.516.877s-.716-1.262-.499-2.618c.044-.276.109-.565.183-.859.656.15 1.371.263 2.131.333.435.615.889 1.179 1.352 1.68-.217.21-.434.41-.651.586Zm5.287-1.741c.217 1.355.035 2.309-.499 2.618-.533.308-1.452-.012-2.516-.877-.216-.176-.434-.375-.65-.586.463-.501.917-1.065 1.352-1.68.76-.071 1.475-.183 2.131-.333.074.294.139.583.183.859Zm.302-1.7c-.202-.65-.463-1.325-.778-2.008.318-.692.578-1.367.776-2.009 1.778.508 2.853 1.282 2.853 2.009s-1.074 1.5-2.851 2.008Z" fill="#46ecd5"/><path d="M33.681 13.476c.471-.461.706-1.109.706-1.945 0-.805-.235-1.426-.706-1.863s-1.138-.656-2.001-.656h-2.859v8.32h1.219v-3.164h1.641c.034 0 .063-.006.096-.007l1.509 3.171h1.406l-1.722-3.403c.27-.113.512-.257.711-.452Zm-3.642-3.352h1.641c.465 0 .827.132 1.087.396s.39.64.39 1.128c0 .445-.13.791-.39 1.037s-.622.369-1.087.369h-1.641v-2.93Zm7.149-1.113h4.29v1.113h-4.29v2.484h3.235v1.113h-3.235v2.496h4.29v1.113H35.97V9.01h1.219Zm7.541 0-2.402 8.32h1.23l.546-2.027h2.951l.546 2.027h1.23l-2.402-8.32h-1.699Zm-.326 5.179 1.123-4.172h.105l1.123 4.172h-2.352Zm7.131-3.404c-.455.543-.682 1.314-.682 2.314 0 2.18.941 3.27 2.824 3.27.566 0 1.125-.117 1.676-.352l.27 1.031c-.68.266-1.395.398-2.145.398-2.585 0-3.878-1.43-3.878-4.289 0-1.355.326-2.405.979-3.149.652-.744 1.572-1.116 2.759-1.116.574 0 1.074.091 1.5.272s.736.44.932.776l-.867.861c-.176-.266-.399-.471-.671-.615s-.565-.217-.882-.217c-.754 0-1.358.271-1.813.814Zm11.154-.662H60.25v7.207h-1.219v-7.207h-2.438V9.011h6.094v1.113Z" fill="#fff"/></svg>