<?xml version="1.0" encoding="UTF-8"?><svg xmlns="http://www.w3.org/2000/svg" width="79" height="28" role="img" aria-label="Resend" viewBox="0 0 79 28"><rect width="79" height="28" rx="4" ry="4" fill="#111"/><path d="M15.787 6H6.001V8.414h7.486c1.452 0 2.626.832 2.626 2.267 0 1.174-.799 2.071-1.957 2.381l-3.05.815c-.751.212-1.142.702-1.142 1.256 0 .392.196.849.62 1.24l5.92 5.626H22l-7.78-7.42h1.566c3.099-.001 4.942-1.844 4.942-4.29S18.885 6 15.786 6Z" fill="#fff"/><path d="M33.681 13.477c.471-.461.706-1.109.706-1.945 0-.805-.235-1.426-.706-1.863s-1.138-.656-2.001-.656h-2.859v8.32h1.219v-3.164h1.641c.034 0 .063-.006.096-.007l1.509 3.171h1.406L32.97 13.93c.27-.113.512-.257.711-.452Zm-3.642-3.352h1.641c.465 0 .827.132 1.087.396s.39.64.39 1.128c0 .445-.13.791-.39 1.037s-.622.369-1.087.369h-1.641v-2.93Zm7.149-1.113h4.29v1.113h-4.29v2.484h3.235v1.113h-3.235v2.496h4.29v1.113H35.97v-8.32h1.219Zm7.438 1.251c-.221.193-.331.479-.331.858 0 .27.072.489.217.659s.357.321.639.454l1.219.574c.617.289 1.086.615 1.406.979s.48.83.48 1.4c0 .754-.245 1.319-.735 1.696s-1.233.565-2.229.565c-.473 0-.915-.038-1.327-.114s-.794-.19-1.146-.343l.152-1.184c.43.184.845.323 1.245.419s.79.144 1.169.144c.547 0 .953-.096 1.219-.287s.398-.482.398-.873c0-.496-.254-.859-.762-1.09l-1.441-.656c-.566-.258-1.001-.568-1.304-.932s-.454-.814-.454-1.354c0-.727.219-1.289.656-1.688s1.057-.598 1.857-.598c.559 0 1.053.082 1.482.246s.844.432 1.242.803l-.82.832c-.344-.281-.665-.485-.964-.612s-.61-.19-.935-.19c-.402 0-.714.097-.935.29Zm6.625-1.251h4.289v1.113h-4.289v2.484h3.234v1.113h-3.234v2.496h4.289v1.113h-5.508v-8.32h1.219Zm9.82 0h1.219v8.32h-1.57l-2.391-6.328h-.117v6.328h-1.219v-8.32h1.57l2.391 6.328h.117V9.012Zm4.922 0h-2.016v8.32h2.016c2.539 0 3.809-1.348 3.809-4.043 0-2.852-1.27-4.277-3.809-4.277Zm1.931 6.474c-.432.488-1.075.732-1.931.732h-.797v-6.094h.797c.855 0 1.499.263 1.931.788s.647 1.317.647 2.376c0 .977-.216 1.709-.647 2.197Z" fill="#fff"/></svg>