<?xml version="1.0" encoding="UTF-8"?><svg xmlns="http://www.w3.org/2000/svg" width="93" height="28" role="img" aria-label="Tailwind" viewBox="0 0 93 28"><rect width="93" height="28" rx="4" ry="4" fill="#0d323a"/><path d="M10 14c1.983 0 2.891.922 3.675 1.718.481.489.916.93 1.525 1.082 1.067.267 2-.133 2.8-1.2-.533 2.133-1.867 3.2-4 3.2-1.983 0-2.891-.922-3.675-1.718-.481-.489-.916-.93-1.525-1.082-1.067-.267-2 .133-2.8 1.2.533-2.133 1.867-3.2 4-3.2Zm4-4.8c1.983 0 2.891.922 3.675 1.718.481.489.916.93 1.525 1.082 1.067.267 2-.133 2.8-1.2-.533 2.133-1.867 3.2-4 3.2-1.983 0-2.891-.922-3.675-1.718-.481-.489-.916-.93-1.525-1.082-1.067-.267-2 .133-2.8 1.2.533-2.133 1.867-3.2 4-3.2Z" fill="#53eafd"/><path d="M82.634 13.29c0 .976-.215 1.709-.647 2.197s-1.076.732-1.931.732h-.797V10.125h.797c.856 0 1.5.263 1.931.788s.647 1.317.647 2.376Zm1.23-.001c0-2.851-1.27-4.277-3.809-4.277H78.039v8.32h2.016c2.539 0 3.809-1.348 3.809-4.043Zm-8.73 2.051V9.012h1.219v8.32h-1.57l-2.391-6.328h-.117v6.328H71.056V9.012h1.57l2.391 6.328h.117ZM66.058 9.012h3.146v1.113H67.276v6.094h1.928v1.113H64.142V16.219h1.916V10.125H64.142V9.012h1.916Zm-4.95 7.383.703-7.383h1.23l-.938 8.32H60.292l-.615-5.051h-.07l-.615 5.051H57.181l-.938-8.32h1.23l.703 7.383h.117l.768-5.273h1.172l.756 5.273h.117ZM51.251 9.012v7.207H55.54v1.113H50.032V9.012h1.219Zm-6.288 0h3.146v1.113H46.181v6.094h1.928v1.113H43.047V16.219h1.916V10.125H43.047V9.012h1.916Zm-5.239 5.179H37.372l1.123-4.172H38.6l1.123 4.172Zm-.328-5.179H37.697l-2.402 8.32h1.23l.546-2.027h2.952l.546 2.027h1.23l-2.403-8.32Zm-7.272 0H28.468v1.113h2.438v7.207h1.219V10.125h2.438V9.012H32.125Z" fill="#fff"/></svg>