<?xml version="1.0" encoding="UTF-8"?><svg xmlns="http://www.w3.org/2000/svg" width="107" height="28" role="img" aria-label="TypeScript" viewBox="0 0 107 28"><rect width="107" height="28" rx="4" ry="4" fill="#162642"/><path d="M19.667 6H8.334C7.044 6 6.001 7.043 6.001 8.333V19.666c0 1.29 1.043 2.333 2.333 2.333H19.667c1.29 0 2.333-1.043 2.333-2.333V8.333C22 7.043 20.957 6 19.667 6Zm-3.571 9.637H14.493V20.24h-1.22V15.637H11.68V14.64h4.417v.997Zm3.723 4.21c-.37.33-.907.493-1.607.493-.317 0-.64-.044-.97-.127-.333-.083-.63-.2-.893-.35l.503-.953c.28.166.527.283.74.343.21.063.43.093.663.093.3 0 .523-.06.673-.177.15-.12.223-.284.223-.497 0-.193-.06-.346-.18-.453-.12-.11-.337-.2-.65-.277-.62-.147-1.07-.35-1.353-.61-.28-.263-.42-.626-.42-1.093 0-.47.18-.87.543-1.2s.873-.493 1.53-.493c.274 0 .544.029.807.093s.517.154.76.277l-.467.96c-.214-.12-.414-.207-.607-.26-.19-.053-.37-.08-.537-.08-.256 0-.46.054-.603.157-.144.1-.217.25-.217.443 0 .173.067.307.197.4.133.094.367.184.71.267.6.14 1.036.347 1.303.62.27.27.403.654.403 1.147 0 .527-.186.95-.553 1.277Z" fill="#8ec5ff"/><path d="M32.125 9.011h2.438v1.113h-2.438v7.207h-1.219v-7.207h-2.438V9.011h3.656Zm8.502 0-2.028 4.16h-.105l-2.027-4.16h-1.289l2.76 5.328v2.992h1.219v-2.992l2.76-5.328h-1.289Zm7.193.697c.537.465.806 1.15.806 2.057 0 .98-.269 1.724-.806 2.229s-1.327.759-2.37.759h-1.23v2.578h-1.219v-8.32h2.449c1.043 0 1.833.232 2.37.697Zm-.425 2.057c0-.539-.164-.947-.492-1.225s-.812-.416-1.453-.416h-1.23v3.516h1.23c.641 0 1.125-.159 1.453-.478s.492-.784.492-1.397Zm2.637-2.754v8.32h5.508v-1.113h-4.289v-2.496h3.234v-1.113h-3.234v-2.484h4.289V9.012h-5.508Zm9.592.961c.324 0 .636.063.935.19s.62.331.964.612l.82-.832c-.398-.371-.812-.639-1.242-.803s-.924-.246-1.482-.246c-.801 0-1.42.199-1.857.598s-.656.961-.656 1.688c0 .539.151.99.454 1.354s.737.674 1.304.932l1.441.656c.508.23.762.594.762 1.09 0 .391-.133.682-.398.873s-.672.287-1.219.287c-.379 0-.769-.048-1.169-.144s-.815-.235-1.245-.419l-.152 1.184c.352.152.733.267 1.146.343s.854.114 1.327.114c.996 0 1.739-.188 2.229-.565s.735-.942.735-1.696c0-.57-.16-1.037-.48-1.4s-.789-.689-1.406-.979l-1.219-.574c-.281-.133-.494-.284-.639-.454s-.217-.39-.217-.659c0-.379.11-.665.331-.858s.532-.29.935-.29Zm7.787 0c.316 0 .61.072.882.217s.495.35.671.615l.867-.861c-.195-.336-.506-.595-.932-.776s-.926-.272-1.5-.272c-1.188 0-2.107.372-2.76 1.116s-.979 1.794-.979 3.149c0 2.859 1.293 4.289 3.879 4.289.75 0 1.465-.133 2.145-.398l-.27-1.031c-.551.234-1.109.352-1.676.352-1.883 0-2.824-1.09-2.824-3.27 0-1 .228-1.771.683-2.314s1.06-.814 1.813-.814Zm7.747 3.956 1.722 3.403h-1.406l-1.509-3.171c-.033 0-.062.007-.096.007h-1.641v3.164h-1.219v-8.32h2.859c.863 0 1.53.219 2.001.656s.706 1.059.706 1.863c0 .836-.235 1.484-.706 1.945-.199.195-.442.34-.711.452Zm-2.93-.874h1.641c.465 0 .827-.123 1.087-.369s.39-.592.39-1.037c0-.488-.13-.864-.39-1.128s-.622-.396-1.087-.396h-1.641v2.93ZM80.12 9.011h-1.916v1.113h1.916v6.094h-1.916v1.113h5.062v-1.113h-1.928v-6.094h1.928V9.011H80.12Zm9.888.697c.537.465.806 1.15.806 2.057 0 .98-.269 1.724-.806 2.229s-1.327.759-2.37.759h-1.23v2.578h-1.219v-8.32h2.449c1.043 0 1.833.232 2.37.697Zm-.425 2.057c0-.539-.164-.947-.492-1.225s-.812-.416-1.453-.416h-1.23v3.516h1.23c.641 0 1.125-.159 1.453-.478s.492-.784.492-1.397Zm8.262-2.754h-6.094v1.113h2.438v7.207h1.219v-7.207h2.438V9.011Z" fill="#fff"/></svg>