<?xml version="1.0" encoding="UTF-8"?><svg xmlns="http://www.w3.org/2000/svg" width="58" height="28" role="img" aria-label="Zod" viewBox="0 0 58 28"><rect width="58" height="28" rx="4" ry="4" fill="#162642"/><path d="m21.911 12.908-1.629-4.518c-.212-.59-.774-.987-1.407-.987H9.13c-.633 0-1.194.392-1.407.982L6.089 12.87c-.212.581-.042 1.237.425 1.643l6.596 5.717c.571.491 1.416.486 1.978-.009l6.407-5.684c.458-.406.623-1.048.415-1.629Zm-2.152-.207-4.159 2.634h2.724l-3.763 3.333c-.302.269-.755.274-1.062.005l-3.824-3.338 6.072-3.692H7.924l.821-2.247c.146-.401.524-.67.954-.67h8.593c.434-.005.821.269.968.675l.033.09.793 2.21c.137.368 0 .779-.326 1.001Z" fill="#8ec5ff"/><path d="M47.477 13.289c0 .976-.215 1.709-.647 2.197s-1.076.732-1.931.732h-.797V10.124h.797c.856 0 1.5.263 1.931.788s.647 1.317.647 2.376Zm1.231-.001c0-2.851-1.27-4.277-3.809-4.277H42.883v8.32h2.016c2.539 0 3.809-1.348 3.809-4.043Zm-8.344-.059c0 2.094-.606 3.141-1.817 3.141s-1.816-1.047-1.816-3.141c0-2.172.605-3.258 1.816-3.258s1.817 1.086 1.817 3.258Zm1.254 0c0-2.891-1.024-4.336-3.071-4.336s-3.07 1.445-3.07 4.336c0 2.813 1.022 4.219 3.07 4.219s3.071-1.407 3.071-4.219ZM30.229 16.218l3.923-6.094V9.011H28.879v1.113h3.889l-3.889 6.094v1.113H34.27V16.218H30.23Z" fill="#fff"/></svg>